<svg id="Calque_1" data-name="Calque 1" xmlns="http://www.w3.org/2000/svg" viewBox="0 0 1737.2 992.34"><defs><style>.cls-1{fill:red;}.cls-2{fill:none;stroke:red;stroke-miterlimit:10;stroke-width:0.28px;}</style></defs><path class="cls-1" d="M1854.51,82.28v991.56H1004.68V82.28h849.83m.28-.28H1004.4v992.13h850.39V82Z" transform="translate(-117.59 -82)"/><path class="cls-1" d="M967.7,82.5v991.56H117.88V82.5H967.7m.29-.29H117.59v992.13H968V82.21Z" transform="translate(-117.59 -82)"/><circle class="cls-2" cx="82.82" cy="120.3" r="7.09"/><circle class="cls-2" cx="383.19" cy="120.2" r="7.09"/><circle class="cls-2" cx="82.53" cy="416.53" r="7.09"/><circle class="cls-2" cx="382.9" cy="416.44" r="7.09"/><circle class="cls-2" cx="464.19" cy="121" r="7.09"/><circle class="cls-2" cx="764.57" cy="120.9" r="7.09"/><circle class="cls-2" cx="463.9" cy="417.23" r="7.09"/><circle class="cls-2" cx="764.27" cy="417.14" r="7.09"/><circle class="cls-2" cx="83.47" cy="564.36" r="7.09"/><circle class="cls-2" cx="383.85" cy="564.26" r="7.09"/><circle class="cls-2" cx="83.18" cy="860.59" r="7.09"/><circle class="cls-2" cx="383.55" cy="860.49" r="7.09"/><circle class="cls-2" cx="464.85" cy="564.06" r="7.09"/><circle class="cls-2" cx="765.22" cy="563.96" r="7.09"/><circle class="cls-2" cx="464.56" cy="860.29" r="7.09"/><circle class="cls-2" cx="764.93" cy="860.19" r="7.09"/><path class="cls-1" d="M351.06,194.32a155.65,155.65,0,1,1-110,45.59,154.61,154.61,0,0,1,110-45.59m0-.28A155.91,155.91,0,1,0,507,350,155.91,155.91,0,0,0,351.06,194Z" transform="translate(-117.59 -82)"/><path class="cls-1" d="M733.21,194.43a155.62,155.62,0,1,1-110,45.58,154.6,154.6,0,0,1,110-45.58m0-.28a155.91,155.91,0,1,0,155.9,155.91,155.91,155.91,0,0,0-155.9-155.91Z" transform="translate(-117.59 -82)"/><path class="cls-1" d="M732.21,637.43a155.62,155.62,0,1,1-110,45.58,154.6,154.6,0,0,1,110-45.58m0-.28a155.91,155.91,0,1,0,155.9,155.91,155.91,155.91,0,0,0-155.9-155.91Z" transform="translate(-117.59 -82)"/><path class="cls-1" d="M350.21,637.43a155.62,155.62,0,1,1-110,45.58,154.6,154.6,0,0,1,110-45.58m0-.28a155.91,155.91,0,1,0,155.9,155.91,155.91,155.91,0,0,0-155.9-155.91Z" transform="translate(-117.59 -82)"/></svg>