<svg xmlns="http://www.w3.org/2000/svg" viewBox="0 0 1707.45 1996.23"><defs><style>.cls-1{fill:red;}.cls-2{fill:none;stroke:red;stroke-miterlimit:10;stroke-width:0.28px;}</style></defs><g id="Calque_1" data-name="Calque 1"><path class="cls-1" d="M865.53,1030.35v991.56H15.7V1030.35H865.53m.28-.28H15.42v992.12H865.81V1030.07Z" transform="translate(-15.21 -27)"/></g><g id="Plaque_1" data-name="Plaque 1"><path class="cls-1" d="M1722.38,27.28v991.56H872.55V27.28h849.83m.28-.28H872.27v992.13h850.39V27Z" transform="translate(-15.21 -27)"/><circle class="cls-2" cx="939.87" cy="120.09" r="7.09"/><circle class="cls-2" cx="1240.25" cy="119.99" r="7.09"/><circle class="cls-2" cx="939.58" cy="416.32" r="7.09"/><circle class="cls-2" cx="1239.95" cy="416.22" r="7.09"/><circle class="cls-2" cx="1321.25" cy="120.79" r="7.09"/><circle class="cls-2" cx="1621.62" cy="120.69" r="7.09"/><circle class="cls-2" cx="1320.96" cy="417.02" r="7.09"/><circle class="cls-2" cx="1621.33" cy="416.92" r="7.09"/><circle class="cls-2" cx="940.53" cy="564.14" r="7.09"/><circle class="cls-2" cx="1240.9" cy="564.04" r="7.09"/><circle class="cls-2" cx="940.24" cy="860.37" r="7.09"/><circle class="cls-2" cx="1240.61" cy="860.28" r="7.09"/><circle class="cls-2" cx="1321.91" cy="563.84" r="7.09"/><circle class="cls-2" cx="1622.28" cy="563.74" r="7.09"/><circle class="cls-2" cx="1321.61" cy="860.07" r="7.09"/><circle class="cls-2" cx="1621.99" cy="859.98" r="7.09"/><path class="cls-1" d="M1105.73,139.11a155.62,155.62,0,1,1-110,45.58,154.6,154.6,0,0,1,110-45.58m0-.28a155.91,155.91,0,1,0,155.91,155.9,155.9,155.9,0,0,0-155.91-155.9Z" transform="translate(-15.21 -27)"/><path class="cls-1" d="M1487.88,139.22a155.62,155.62,0,1,1-110,45.58,154.64,154.64,0,0,1,110-45.58m0-.28a155.91,155.91,0,1,0,155.91,155.9,155.9,155.9,0,0,0-155.91-155.9Z" transform="translate(-15.21 -27)"/><path class="cls-1" d="M1486.88,582.22a155.62,155.62,0,1,1-110,45.58,154.64,154.64,0,0,1,110-45.58m0-.28a155.91,155.91,0,1,0,155.91,155.9,155.9,155.9,0,0,0-155.91-155.9Z" transform="translate(-15.21 -27)"/><path class="cls-1" d="M1104.88,582.22a155.62,155.62,0,1,1-110,45.58,154.64,154.64,0,0,1,110-45.58m0-.28a155.91,155.91,0,1,0,155.91,155.9,155.9,155.9,0,0,0-155.91-155.9Z" transform="translate(-15.21 -27)"/></g><g id="Plaque_2" data-name="Plaque 2"><circle class="cls-2" cx="123.04" cy="199.25" r="4.25"/><circle class="cls-2" cx="286.92" cy="198.8" r="4.25"/><circle class="cls-2" cx="286.92" cy="337.8" r="4.25"/><circle class="cls-2" cx="122.92" cy="337.8" r="4.25"/><path class="cls-1" d="M220.32,210.38a84.76,84.76,0,1,1-84.75,84.75,84.85,84.85,0,0,1,84.75-84.75m0-.29a85,85,0,1,0,85,85,85,85,0,0,0-85-85Z" transform="translate(-15.21 -27)"/><path class="cls-1" d="M603.5,211.38a84.76,84.76,0,1,1-84.75,84.75,84.85,84.85,0,0,1,84.75-84.75m0-.29a85,85,0,1,0,85,85,85,85,0,0,0-85-85Z" transform="translate(-15.21 -27)"/><path class="cls-1" d="M220.32,653.58a84.76,84.76,0,1,1-84.75,84.76,84.85,84.85,0,0,1,84.75-84.76m0-.28a85,85,0,1,0,85,85,85,85,0,0,0-85-85Z" transform="translate(-15.21 -27)"/><path class="cls-1" d="M603.42,654.52a84.76,84.76,0,1,1-84.75,84.76,84.85,84.85,0,0,1,84.75-84.76m0-.28a85,85,0,1,0,85,85,85,85,0,0,0-85-85Z" transform="translate(-15.21 -27)"/><circle class="cls-2" cx="506.48" cy="199.75" r="4.25"/><circle class="cls-2" cx="670.36" cy="199.3" r="4.25"/><circle class="cls-2" cx="670.36" cy="338.3" r="4.25"/><circle class="cls-2" cx="506.36" cy="338.3" r="4.25"/><circle class="cls-2" cx="124.48" cy="641.75" r="4.25"/><circle class="cls-2" cx="288.36" cy="641.3" r="4.25"/><circle class="cls-2" cx="288.36" cy="780.3" r="4.25"/><circle class="cls-2" cx="124.36" cy="780.3" r="4.25"/><circle class="cls-2" cx="506.9" cy="641.82" r="4.25"/><circle class="cls-2" cx="670.78" cy="641.37" r="4.25"/><circle class="cls-2" cx="670.78" cy="780.37" r="4.25"/><circle class="cls-2" cx="506.78" cy="780.37" r="4.25"/><path class="cls-1" d="M865.32,27.3v991.56H15.5V27.3H865.32m.29-.28H15.21v992.13h850.4V27Z" transform="translate(-15.21 -27)"/></g><g id="Calque_4" data-name="Calque 4"><circle class="cls-2" cx="1362.08" cy="1203.85" r="4.25"/><circle class="cls-2" cx="1525.96" cy="1203.4" r="4.25"/><circle class="cls-2" cx="1525.96" cy="1342.4" r="4.25"/><circle class="cls-2" cx="1361.96" cy="1342.4" r="4.25"/><circle class="cls-2" cx="980.08" cy="1645.85" r="4.25"/><circle class="cls-2" cx="1143.96" cy="1645.4" r="4.25"/><circle class="cls-2" cx="1143.96" cy="1784.4" r="4.25"/><circle class="cls-2" cx="979.96" cy="1784.4" r="4.25"/><circle class="cls-2" cx="1362.5" cy="1645.92" r="4.25"/><circle class="cls-2" cx="1526.39" cy="1645.47" r="4.25"/><circle class="cls-2" cx="1526.39" cy="1784.47" r="4.25"/><circle class="cls-2" cx="1362.39" cy="1784.47" r="4.25"/><path class="cls-1" d="M1722,1031.38v991.56H872.16V1031.38H1722m.29-.28H871.87v992.13h850.4V1031.1Z" transform="translate(-15.21 -27)"/><circle class="cls-2" cx="979.64" cy="1203.35" r="4.25"/><circle class="cls-2" cx="1143.52" cy="1202.9" r="4.25"/><circle class="cls-2" cx="1143.52" cy="1341.9" r="4.25"/><circle class="cls-2" cx="979.52" cy="1341.9" r="4.25"/></g></svg>